<svg width="73" height="74" viewBox="0 0 73 74" fill="none" xmlns="http://www.w3.org/2000/svg">
<rect width="72.8205" height="73.4483" rx="36.4102" fill="#52A350"/>
<path fill-rule="evenodd" clip-rule="evenodd" d="M26.5586 26.9939V33.9959H32.3561V47.4813C32.3561 55.4213 35.3808 58.6981 42.5646 58.6981C44.2661 58.6981 46.3456 58.4461 47.7949 58.068V51.0102C46.2196 51.3253 44.9592 51.5143 43.5729 51.5143C40.5481 51.5143 39.7919 50.254 39.7919 45.2758V33.9959H47.7949V26.9939H26.5586Z" fill="white"/>
<path d="M30.1472 16.5846C30.7537 15.6893 32.0627 15.6612 32.707 16.5297L36.7495 21.9782C37.5178 23.0138 36.7786 24.4828 35.4891 24.4828H27.7556C26.4969 24.4828 25.7503 23.0753 26.4563 22.0332L30.1472 16.5846Z" fill="white"/>
</svg>
