<svg width="93" height="38" viewBox="0 0 93 38" fill="none" xmlns="http://www.w3.org/2000/svg">
<g clip-path="url(#clip0_1016_4187)">
<rect x="2" y="1" width="35.2881" height="35.5923" rx="17.644" fill="#B4BAB4"/>
<path d="M44.6396 29.0647V20.8197C44.6396 18.4073 46.2581 16.8805 48.3346 16.8805C50.2584 16.8805 51.602 18.0714 51.602 20.6365V29.0647H55.2054V19.8731C55.2054 15.9949 52.7624 13.4909 49.2201 13.4909C47.4185 13.4909 45.7695 14.2543 44.6396 15.4453V7.07817H41.0363V29.0647H44.6396ZM62.3534 29.0647V13.7963H58.75V29.0647H62.3534ZM58.4141 8.91038C58.4141 10.1013 59.3608 11.0785 60.5517 11.0785C61.7426 11.0785 62.6893 10.1013 62.6893 8.91038C62.6893 7.74998 61.7426 6.7728 60.5517 6.7728C59.3608 6.7728 58.4141 7.74998 58.4141 8.91038ZM69.5105 29.0647V20.8197C69.5105 18.4989 71.4037 16.8805 73.694 16.8805C73.8161 16.8805 73.9688 16.8805 74.091 16.911V13.4909C72.1366 13.4909 70.5487 14.3154 69.5105 15.5369V13.7963H65.9071V29.0647H69.5105ZM74.8647 21.4305C74.8647 25.9194 78.3764 29.3701 82.9875 29.3701C85.4915 29.3701 87.6291 28.4845 89.0948 26.866L86.8046 24.5758C85.8885 25.5835 84.4838 26.1026 83.018 26.1026C80.7583 26.1026 79.0482 24.9422 78.4375 23.0489H89.7972C89.8582 22.4382 89.9499 21.7969 89.9499 21.2167C89.9499 16.6667 86.9878 13.4909 82.6516 13.4909C78.2237 13.4909 74.8647 16.9416 74.8647 21.4305ZM82.5905 16.7278C84.6364 16.7278 86.2549 18.0714 86.5603 20.2395H78.3764C78.6818 18.1325 80.4834 16.7278 82.5905 16.7278Z" fill="#B4BAB4"/>
<path fill-rule="evenodd" clip-rule="evenodd" d="M14.8696 14.0809V17.4741H17.679V24.009C17.679 27.8566 19.1448 29.4445 22.626 29.4445C23.4505 29.4445 24.4582 29.3224 25.1605 29.1392V25.719C24.3971 25.8717 23.7864 25.9633 23.1146 25.9633C21.6488 25.9633 21.2824 25.3526 21.2824 22.9402V17.4741H25.1605V14.0809H14.8696Z" fill="#1A1F1A"/>
<path d="M16.6084 9.03677C16.9022 8.60293 17.5365 8.58932 17.8488 9.01015L19.8077 11.6505C20.1801 12.1523 19.8218 12.8641 19.197 12.8641H15.4494C14.8394 12.8641 14.4777 12.1821 14.8198 11.6771L16.6084 9.03677Z" fill="#1A1F1A"/>
</g>
<defs>
<clipPath id="clip0_1016_4187">
<rect width="93" height="38" fill="white"/>
</clipPath>
</defs>
</svg>
